<?xml version="1.0" encoding="utf-8"?>
<svg version="1.1" viewBox="0 0 1150 1150" xmlns="http://www.w3.org/2000/svg" xmlns:xlink="http://www.w3.org/1999/xlink" xml:space="preserve">
<g>
	<path style="fill:#52FF81" d="M1082.3,880.7c-5.9-14.1-12.5-28.6-19.9-43.5c-11.5-23.1-24.7-46.9-39.5-71.3c23.2-54.1,37.1-113.1,39.7-174.9
		c0.3-7.2,0.6-14.4,0.6-21.7c0-7.3-0.2-14.5-0.6-21.7c-3.9-90.3-31.8-174.4-77.5-246.3c-9.6-15-19.9-29.6-31-43.5
		c-56-70.4-130.4-125.4-216-157.6c-4.4-1.7-8.9-3.2-13.4-4.8c-51-17.6-105.7-27.2-162.6-27.2s-111.6,9.7-162.6,27.2
		c-4.5,1.5-9,3.1-13.4,4.8c-7.2,2.7-14.3,5.5-21.3,8.6c-12.4-7.5-24.7-14.7-36.8-21.4C191.1,11.9,92.2-1.4,41.9,48.9
		C-1,91.8,4.3,166.8,42,257.8c5.9,14.1,12.5,28.6,19.9,43.5c11.5,23.1,24.7,46.9,39.5,71.3c-23.2,54.1-37.1,113.1-39.7,174.9
		c-0.3,7.2-0.6,14.4-0.6,21.7c0,7.3,0.2,14.5,0.6,21.7c3.9,90.3,31.8,174.4,77.5,246.3c9.6,15,19.9,29.6,31,43.5
		c56,70.4,130.4,125.4,216,157.6c4.4,1.7,8.9,3.2,13.4,4.8c51,17.6,105.7,27.2,162.6,27.2s111.6-9.7,162.6-27.2
		c4.5-1.5,9-3.1,13.4-4.8c7-2.6,13.9-5.4,20.7-8.3c92.2,55.8,176.6,89.7,240.7,89.7c33.9,0,62.2-9.5,82.9-30.2
		C1125.3,1046.6,1120.1,971.6,1082.3,880.7z M346.4,190.8c-8.5,22.1-16.2,44.4-23.2,67h-65.5C284.2,231.8,314,209.3,346.4,190.8z
		 M218.8,301.2h92C293,369.3,282,438.8,278,508.6c-38.6-48-73-95.4-102.2-140.8C188.2,344.3,202.6,322,218.8,301.2z M137.4,303.6
		c-0.4-0.8-0.8-1.6-1.3-2.4c-8.4-15.4-15.8-29.9-22.2-43.5C69.9,164.1,71.1,111.9,88,95c6.7-6.7,18.8-10.9,36.7-10.9
		c34.6,0,91,15.8,171.8,60.3c0.1,0,0.1,0.1,0.2,0.1c-48.4,30.3-91.2,68.7-126.6,113.2c-11.1,13.9-21.4,28.4-31,43.5
		c-0.5,0.8-1.1,1.7-1.6,2.5C137.5,303.7,137.5,303.6,137.4,303.6z M145.7,440.7c24.2,35.1,51,70.9,79.9,106.7h-98.6
		C128.7,510.5,135.2,474.7,145.7,440.7z M126.9,590.9h134.6c5.2,6.1,10.4,12.2,15.7,18.3c2.9,76.8,14.1,153.2,33.7,228h-92
		C165.1,768.6,131.4,683.5,126.9,590.9z M257.7,880.7h65.5c6.9,22.5,14.7,44.9,23.2,67C314,929.1,284.2,906.6,257.7,880.7z
		 M324,661.7c23.2,25.2,47,50,71.3,74.4c34.9,34.9,71,68.8,107.4,101.1h-147C340,779.6,329.4,720.8,324,661.7z M540.4,1004.5
		c-47.7-2.4-93.3-12.5-135.7-29c-13.6-31.1-25.6-62.8-35.9-94.8h171.7V1004.5z M540.4,783.6c-33.2-29.6-66.3-60.9-99-93.6
		c-32.7-32.7-64-65.9-93.6-99h192.7V783.6z M540.4,317.1v230.4H320c1.8-82.9,13.7-165.7,35.7-246.3h165.6h19.1V317.1z M540.4,232.7
		v25h-73.6h-98.1c6.1-19,12.8-37.8,20.1-56.4c5-12.9,10.3-25.7,15.9-38.4c9.4-3.6,18.9-7.1,28.5-10.1
		c34.1-10.6,70.1-17.1,107.2-18.9V232.7z M997.5,547.5H862.9h-15.1c-0.1-6.1-0.3-12.2-0.5-18.3c-2.9-76.8-14.1-153.2-33.7-228h92
		C959.2,369.9,992.9,454.9,997.5,547.5z M997.5,590.9c-1.8,37-8.3,72.7-18.8,106.7c-7.8,25.4-18,49.8-30.2,73
		c-12.3,23.5-26.7,45.8-43,66.6h-92c17.8-68.1,28.8-137.5,32.8-207.4c0.7-13,1.2-25.9,1.4-38.9h51H997.5z M866.6,257.8h-65.5
		c-6.9-22.5-14.7-44.9-23.2-67C810.3,209.3,840.1,231.8,866.6,257.8z M583.9,133.9c47.7,2.4,93.3,12.5,135.7,29
		c13.6,31.1,25.6,62.8,35.9,94.8H583.9V133.9z M583.9,354.8v-53.6h37.7h147c15.8,57.6,26.4,116.4,31.8,175.5
		c2.1,23.5,3.4,47.1,3.9,70.8h-27.8H583.9V354.8z M583.9,1004.5v-98.7c35.9,28.8,71.6,55.6,106.8,79.9
		C656.7,996.2,620.9,1002.7,583.9,1004.5z M735.5,937.1c-25.6-17.3-51.6-36.2-78-56.4h98.1C749.5,899.6,742.8,918.4,735.5,937.1z
		 M603,837.2c-6.3-5.2-12.7-10.5-19.1-15.9V590.9h220.4c-1.8,82.9-13.7,165.7-35.7,246.3H603z M801.2,880.7h65.5
		c-26.5,25.9-56.3,48.4-88.7,67C786.5,925.5,794.2,903.2,801.2,880.7z M1036.3,1043.4c-19.5,19.5-85.8,18.2-208.6-49.4
		c-0.1,0-0.1-0.1-0.2-0.1c48.4-30.3,91.2-68.7,126.6-113.2c11.1-13.9,21.4-28.4,31-43.5c0.5-0.8,1.1-1.7,1.6-2.5
		c0,0.1,0.1,0.1,0.1,0.2c0.4,0.8,0.8,1.6,1.3,2.4c8.4,15.4,15.8,29.9,22.2,43.5C1054.5,974.3,1053.2,1026.5,1036.3,1043.4z"/>
</g>
</svg>
